<?xml version="1.0" encoding="UTF-8" standalone="no"?>
<!-- Created with Inkscape (http://www.inkscape.org/) -->

<svg
   xmlns:dc="http://purl.org/dc/elements/1.1/"
   xmlns:cc="http://creativecommons.org/ns#"
   xmlns:rdf="http://www.w3.org/1999/02/22-rdf-syntax-ns#"
   xmlns:svg="http://www.w3.org/2000/svg"
   xmlns="http://www.w3.org/2000/svg"
   xmlns:sodipodi="http://sodipodi.sourceforge.net/DTD/sodipodi-0.dtd"
   xmlns:inkscape="http://www.inkscape.org/namespaces/inkscape"
   id="svg3081"
   version="1.1"
   inkscape:version="0.48.1 r9760"
   width="744.09448"
   height="1052.3622"
   xml:space="preserve"
   sodipodi:docname="ridom Logo.eps"><metadata
     id="metadata3087"><rdf:RDF><cc:Work
         rdf:about=""><dc:format>image/svg+xml</dc:format><dc:type
           rdf:resource="http://purl.org/dc/dcmitype/StillImage" /><dc:title></dc:title></cc:Work></rdf:RDF></metadata><defs
     id="defs3085"><clipPath
       clipPathUnits="userSpaceOnUse"
       id="clipPath3097"><path
         d="M 0,4388.87 0,0 l 3884.59,0 0,4388.87 -3884.59,0 z"
         id="path3099"
         inkscape:connector-curvature="0" /></clipPath></defs><sodipodi:namedview
     pagecolor="#ffffff"
     bordercolor="#666666"
     borderopacity="1"
     objecttolerance="10"
     gridtolerance="10"
     guidetolerance="10"
     inkscape:pageopacity="0"
     inkscape:pageshadow="2"
     inkscape:window-width="1079"
     inkscape:window-height="855"
     id="namedview3083"
     showgrid="false"
     inkscape:zoom="1.3713899"
     inkscape:cx="323.50183"
     inkscape:cy="362.5097"
     inkscape:window-x="0"
     inkscape:window-y="0"
     inkscape:window-maximized="0"
     inkscape:current-layer="g3089" /><g
     id="g3089"
     inkscape:groupmode="layer"
     inkscape:label="ink_ext_XXXXXX"
     transform="matrix(1.25,0,0,-1.25,0,1052.3622)"><path
       inkscape:connector-curvature="0"
       id="path3101"
       style="fill:#00adef;fill-opacity:1;fill-rule:evenodd;stroke:none"
       d="m 169.201,419.164 c 0,-10.893 -8.83,-19.724 -19.723,-19.724 -10.893,0 -19.724,8.831 -19.724,19.724 0,10.893 8.831,19.723 19.724,19.723 10.893,0 19.723,-8.83 19.723,-19.723" /><path
       inkscape:connector-curvature="0"
       id="path3103"
       style="fill:#0f65a6;fill-opacity:1;fill-rule:evenodd;stroke:none"
       d="m 219.694,419.164 c 0,-10.893 -8.831,-19.724 -19.723,-19.724 -10.894,0 -19.725,8.831 -19.725,19.724 0,10.893 8.831,19.723 19.725,19.723 10.892,0 19.723,-8.83 19.723,-19.723" /><path
       inkscape:connector-curvature="0"
       id="path3105"
       style="fill:#ec008c;fill-opacity:1;fill-rule:evenodd;stroke:none"
       d="m 250.462,399.44 c -5.23,0 -10.247,2.078 -13.945,5.777 -3.7,3.699 -5.778,8.716 -5.778,13.946 0,5.232 2.078,10.248 5.778,13.947 3.698,3.699 8.715,5.777 13.945,5.777 5.231,0 10.248,-2.078 13.947,-5.777 3.699,-3.699 5.778,-8.715 5.778,-13.947 0,-5.23 -2.079,-10.247 -5.778,-13.946 -3.699,-3.699 -8.716,-5.777 -13.947,-5.777 z m -10.014,9.745 c 2.643,-2.644 6.229,-4.129 9.968,-4.129 3.739,0 7.325,1.485 9.97,4.129 2.643,2.643 4.129,6.23 4.129,9.968 0,3.74 -1.486,7.326 -4.129,9.969 -2.645,2.644 -6.231,4.129 -9.97,4.129 -3.739,0 -7.325,-1.485 -9.968,-4.129 -2.643,-2.643 -4.129,-6.229 -4.129,-9.969 0,-3.738 1.486,-7.325 4.129,-9.968" /><path
       inkscape:connector-curvature="0"
       id="path3107"
       style="fill:#0f65a6;fill-opacity:1;fill-rule:evenodd;stroke:none"
       d="m 219.694,368.671 c 0,-10.893 -8.831,-19.724 -19.723,-19.724 -10.894,0 -19.725,8.831 -19.725,19.724 0,10.893 8.831,19.724 19.725,19.724 10.892,0 19.723,-8.831 19.723,-19.724" /><path
       inkscape:connector-curvature="0"
       id="path3109"
       style="fill:#00adef;fill-opacity:1;fill-rule:evenodd;stroke:none"
       d="m 270.187,368.671 c 0,-10.893 -8.832,-19.724 -19.724,-19.724 -10.893,0 -19.724,8.831 -19.724,19.724 0,10.893 8.831,19.724 19.724,19.724 10.892,0 19.724,-8.831 19.724,-19.724" /><path
       inkscape:connector-curvature="0"
       id="path3111"
       style="fill:#ec008c;fill-opacity:1;fill-rule:evenodd;stroke:none"
       d="m 149.479,349.037 c -5.232,0 -10.249,2.078 -13.948,5.777 -3.699,3.698 -5.777,8.716 -5.777,13.946 0,5.231 2.078,10.248 5.777,13.947 3.699,3.699 8.716,5.777 13.948,5.777 5.229,0 10.247,-2.078 13.945,-5.777 3.699,-3.699 5.777,-8.716 5.777,-13.947 0,-5.23 -2.078,-10.248 -5.777,-13.946 -3.698,-3.699 -8.716,-5.777 -13.945,-5.777 z m -10.016,9.745 c 2.643,-2.644 6.229,-4.129 9.969,-4.129 3.738,0 7.324,1.485 9.968,4.129 2.644,2.643 4.129,6.229 4.129,9.968 0,3.739 -1.485,7.325 -4.129,9.969 -2.644,2.644 -6.23,4.129 -9.968,4.129 -3.74,0 -7.326,-1.485 -9.969,-4.129 -2.644,-2.644 -4.129,-6.23 -4.129,-9.969 0,-3.739 1.485,-7.325 4.129,-9.968" /><path
       inkscape:connector-curvature="0"
       id="path3113"
       style="fill:#0f65a6;fill-opacity:1;fill-rule:evenodd;stroke:none"
       d="m 185.862,273.254 c 0,0.8 0.23,1.4 0.69,1.8 0.461,0.401 1.15,0.601 2.07,0.601 l 5.276,0 c 0.765,0 1.268,-0.132 1.512,-0.395 0.243,-0.263 0.387,-0.817 0.435,-1.663 0.931,1.006 1.932,1.749 3.002,2.229 1.068,0.48 2.274,0.721 3.616,0.721 1.593,0 2.906,-0.349 3.94,-1.047 1.035,-0.697 1.803,-1.755 2.304,-3.173 0.96,1.441 2.069,2.504 3.327,3.19 1.258,0.687 2.698,1.03 4.322,1.03 2.951,0 5.105,-0.961 6.465,-2.882 1.362,-1.921 2.041,-5.031 2.041,-9.33 l 0,-15.539 0.549,0 c 1.418,0 2.367,-0.171 2.847,-0.514 0.48,-0.343 0.721,-0.961 0.721,-1.852 0,-0.824 -0.206,-1.441 -0.618,-1.853 -0.412,-0.411 -1.018,-0.617 -1.818,-0.617 l -4.183,0 c -0.926,0 -1.61,0.274 -2.05,0.823 -0.441,0.549 -0.661,1.418 -0.661,2.607 l 0,15.676 c 0,3.224 -0.29,5.402 -0.869,6.534 -0.578,1.132 -1.572,1.698 -2.979,1.698 -1.68,0 -3.014,-0.731 -4.001,-2.195 -0.987,-1.463 -1.481,-3.476 -1.481,-6.037 l 0,-14.27 0.618,0 c 1.394,0 2.327,-0.165 2.795,-0.496 0.469,-0.332 0.704,-0.955 0.704,-1.87 0,-0.824 -0.195,-1.441 -0.583,-1.853 -0.39,-0.411 -0.984,-0.617 -1.785,-0.617 l -4.356,0 c -0.983,0 -1.651,0.229 -2.007,0.686 -0.353,0.457 -0.531,1.441 -0.531,2.95 l 0,18.145 c 0,1.716 -0.386,3.07 -1.157,4.065 -0.773,0.995 -1.828,1.492 -3.167,1.492 -1.022,0 -1.958,-0.303 -2.81,-0.909 -0.851,-0.606 -1.583,-1.503 -2.195,-2.692 l 0,-18.901 1.268,0 c 1.372,0 2.298,-0.171 2.779,-0.514 0.48,-0.343 0.72,-0.961 0.72,-1.852 0,-0.938 -0.195,-1.584 -0.583,-1.938 -0.388,-0.355 -1.132,-0.532 -2.23,-0.532 l -9.177,0 c -0.896,0 -1.559,0.2 -1.983,0.6 -0.427,0.4 -0.639,1.023 -0.639,1.87 0,0.915 0.269,1.538 0.807,1.87 0.536,0.331 1.583,0.496 3.137,0.496 l 0.686,0 0,21.988 -0.616,0 c -1.602,0 -2.694,0.183 -3.277,0.549 -0.583,0.366 -0.875,1.006 -0.875,1.921 z m -171.9007,-10.257 0,-14.201 11.3867,0 c 0.8922,0 1.5504,-0.188 1.9735,-0.566 0.4226,-0.377 0.6336,-0.977 0.6336,-1.8 0,-0.938 -0.1996,-1.584 -0.5996,-1.938 -0.4004,-0.355 -1.1383,-0.532 -2.2125,-0.532 l -22.43245,0 c -0.89219,0 -1.56758,0.206 -2.024612,0.617 C 0.229297,244.989 0,245.606 0,246.43 c 0,0.8 0.234375,1.395 0.703125,1.783 0.469145,0.389 1.195315,0.583 2.178125,0.583 l 5.96875,0 0,21.988 -2.33281,0 c -2.21797,0 -3.60117,0.177 -4.15,0.532 -0.54883,0.354 -0.82266,1 -0.82266,1.938 0,0.8 0.22266,1.4 0.66797,1.8 0.4457,0.401 1.12695,0.601 2.04102,0.601 l 7.82068,0 c 0.6172,0 1.086,-0.12 1.4063,-0.36 0.3199,-0.241 0.4808,-0.589 0.4808,-1.047 l 0,-5.831 c 2.1719,2.721 4.4364,4.745 6.791,6.071 2.3551,1.327 4.8942,1.99 7.6149,1.99 2.0351,0 3.6812,-0.412 4.939,-1.235 1.2583,-0.823 1.8872,-1.887 1.8872,-3.19 0,-0.846 -0.3149,-1.595 -0.9446,-2.247 -0.6277,-0.651 -1.3195,-0.977 -2.0746,-0.977 -0.5258,0 -1.4121,0.348 -2.6582,1.046 -1.2461,0.697 -2.3605,1.046 -3.3437,1.046 -1.784,0 -3.6649,-0.635 -5.643,-1.904 -1.9781,-1.269 -4.1672,-3.276 -6.568,-6.02 z m 45.8668,22.537 c 0,2.469 0.2231,4.024 0.6692,4.665 0.4453,0.64 1.4004,0.96 2.864,0.96 1.4168,0 2.3551,-0.269 2.8121,-0.806 0.4578,-0.537 0.686,-1.812 0.686,-3.825 0,-1.966 -0.211,-3.184 -0.6344,-3.653 -0.4227,-0.469 -1.3777,-0.703 -2.8637,-0.703 -1.4636,0 -2.4187,0.217 -2.864,0.652 -0.4461,0.434 -0.6692,1.338 -0.6692,2.71 z m 6.3453,-11.286 0,-25.452 11.0106,0 c 0.8922,0 1.5496,-0.188 1.9722,-0.566 0.4231,-0.377 0.6348,-0.977 0.6348,-1.8 0,-0.938 -0.1996,-1.584 -0.6008,-1.938 -0.4004,-0.355 -1.1371,-0.532 -2.2121,-0.532 l -26.6168,0 c -0.9148,0 -1.6011,0.206 -2.0582,0.617 -0.4578,0.412 -0.6859,1.029 -0.6859,1.853 0,0.8 0.2402,1.395 0.7203,1.783 0.4801,0.389 1.1996,0.583 2.1605,0.583 l 10.4625,0 0,21.988 -6.689,0 c -0.9387,0 -1.6524,0.211 -2.1442,0.634 -0.491,0.423 -0.7371,1.035 -0.7371,1.836 0,0.8 0.2282,1.4 0.686,1.8 0.457,0.401 1.1429,0.601 2.0582,0.601 l 10.0496,0 c 0.6172,0 1.1031,-0.126 1.4582,-0.378 0.3539,-0.251 0.5312,-0.594 0.5312,-1.029 z m 59.4156,-30.288 -6.62,0 c -0.48,0 -0.817,0.12 -1.012,0.36 -0.194,0.24 -0.291,0.703 -0.291,1.389 l 0,2.813 c -1.372,-1.715 -3.087,-3.047 -5.145,-3.996 -2.058,-0.949 -4.288,-1.424 -6.689,-1.424 -4.322,0 -7.941,1.538 -10.8558,4.615 -2.916,3.075 -4.3731,6.899 -4.3731,11.473 0,4.733 1.5539,8.672 4.6641,11.817 3.1101,3.144 6.9858,4.716 11.6278,4.716 2.356,0 4.471,-0.417 6.346,-1.252 1.875,-0.834 3.487,-2.064 4.836,-3.687 l 0,13.137 -1.818,0 c -1.989,0 -3.275,0.178 -3.858,0.532 -0.583,0.355 -0.875,1.001 -0.875,1.938 0,0.823 0.234,1.441 0.703,1.852 0.469,0.412 1.149,0.618 2.041,0.618 l 7.032,0 c 0.686,0 1.183,-0.114 1.492,-0.343 0.308,-0.229 0.463,-0.583 0.463,-1.064 l 0,-38.658 1.543,0 c 1.121,0 1.933,-0.188 2.436,-0.566 0.503,-0.377 0.754,-0.977 0.754,-1.8 0,-0.778 -0.217,-1.384 -0.651,-1.818 -0.435,-0.434 -1.018,-0.652 -1.75,-0.652 z m -29.0867,15.401 c 0,-3.155 1.0176,-5.739 3.0528,-7.752 2.0349,-2.012 4.6189,-3.017 7.7519,-3.017 3.156,0 5.751,1.045 7.786,3.137 2.035,2.093 3.053,4.751 3.053,7.975 0,3.179 -1.012,5.797 -3.036,7.855 -2.023,2.059 -4.625,3.088 -7.803,3.088 -3.224,0 -5.831,-1.041 -7.8207,-3.122 -1.989,-2.081 -2.984,-4.802 -2.984,-8.164 z m 61.3157,-11.456 c 3.522,0 6.41,1.114 8.661,3.344 2.253,2.23 3.379,5.071 3.379,8.524 0,3.453 -1.131,6.306 -3.396,8.558 -2.264,2.253 -5.145,3.379 -8.644,3.379 -3.498,0 -6.374,-1.126 -8.626,-3.379 -2.253,-2.252 -3.379,-5.105 -3.379,-8.558 0,-3.476 1.121,-6.323 3.361,-8.541 2.241,-2.218 5.123,-3.327 8.644,-3.327 z m 18.008,11.868 c 0,-4.894 -1.669,-8.896 -5.008,-12.006 -3.338,-3.11 -7.672,-4.665 -13,-4.665 -5.304,0 -9.627,1.555 -12.964,4.665 -3.34,3.11 -5.009,7.112 -5.009,12.006 0,4.894 1.669,8.89 5.009,11.988 3.337,3.099 7.66,4.648 12.964,4.648 5.305,0 9.633,-1.555 12.983,-4.665 3.35,-3.11 5.025,-7.1 5.025,-11.971" /><path
       inkscape:connector-curvature="0"
       id="path3115"
       style="fill:#231f20;fill-opacity:1;fill-rule:evenodd;stroke:none"
       d="m 73.598,213.183 c 0,-0.302 -0.0378,-0.58 -0.1144,-0.834 -0.0766,-0.254 -0.1844,-0.484 -0.3227,-0.686 -0.1382,-0.203 -0.3054,-0.381 -0.5007,-0.534 -0.195,-0.153 -0.4153,-0.282 -0.6602,-0.386 -0.2445,-0.104 -0.5066,-0.181 -0.7855,-0.232 -0.2793,-0.053 -0.6,-0.079 -0.9602,-0.079 l -2.507,0 c -0.1141,0 -0.2207,0.038 -0.3231,0.115 -0.1012,0.076 -0.1515,0.212 -0.1515,0.404 l 0,8.559 c 0,0.191 0.0503,0.326 0.1515,0.403 0.1024,0.076 0.209,0.115 0.3231,0.115 l 2.18,0 c 0.5743,0 1.043,-0.055 1.409,-0.163 0.3657,-0.109 0.6711,-0.267 0.916,-0.475 0.245,-0.208 0.4289,-0.461 0.5528,-0.764 0.123,-0.301 0.1851,-0.642 0.1851,-1.023 0,-0.228 -0.0269,-0.445 -0.082,-0.653 -0.0535,-0.207 -0.134,-0.398 -0.241,-0.574 -0.1063,-0.176 -0.2391,-0.333 -0.4,-0.471 -0.161,-0.139 -0.3449,-0.253 -0.5527,-0.342 0.2625,-0.049 0.5066,-0.138 0.7347,-0.27 0.227,-0.131 0.4258,-0.298 0.5973,-0.501 0.1699,-0.201 0.3047,-0.44 0.4039,-0.712 0.0988,-0.272 0.1476,-0.57 0.1476,-0.897 z m -1.9207,4.294 c 0,0.232 -0.0324,0.442 -0.0961,0.63 -0.064,0.188 -0.1652,0.347 -0.3031,0.478 -0.1379,0.132 -0.3176,0.232 -0.5398,0.302 -0.2223,0.068 -0.516,0.103 -0.8809,0.103 l -1.3164,0 0,-3.108 1.45,0 c 0.3305,0 0.5965,0.045 0.7988,0.13 0.2024,0.087 0.3704,0.204 0.5036,0.349 0.1328,0.146 0.23,0.317 0.2921,0.511 0.0622,0.196 0.0918,0.397 0.0918,0.605 z m 0.5789,-4.368 c 0,0.287 -0.0457,0.539 -0.1371,0.756 -0.091,0.218 -0.225,0.401 -0.4,0.549 -0.1746,0.148 -0.3937,0.262 -0.6582,0.337 -0.2636,0.077 -0.5957,0.115 -0.9957,0.115 l -1.5242,0 0,-3.381 1.85,0 c 0.291,0 0.5449,0.034 0.7621,0.104 0.2168,0.069 0.4078,0.172 0.5739,0.307 0.1652,0.136 0.2957,0.306 0.3882,0.508 0.0942,0.203 0.141,0.439 0.141,0.705 z m 10.6379,6.726 0,-9.21 c 0,-0.04 -0.0097,-0.074 -0.0296,-0.104 -0.0204,-0.03 -0.0543,-0.052 -0.1043,-0.071 -0.0489,-0.017 -0.1153,-0.032 -0.1957,-0.044 -0.0821,-0.013 -0.184,-0.019 -0.3083,-0.019 -0.1191,0 -0.2203,0.006 -0.3042,0.019 -0.0836,0.012 -0.1508,0.027 -0.1997,0.044 -0.0503,0.019 -0.0839,0.041 -0.1039,0.071 -0.0199,0.03 -0.03,0.064 -0.03,0.104 l 0,9.21 c 0,0.04 0.0109,0.074 0.0339,0.104 0.0219,0.03 0.059,0.053 0.111,0.071 0.0519,0.017 0.1191,0.031 0.2,0.044 0.082,0.012 0.1789,0.018 0.2929,0.018 0.1243,0 0.2262,-0.006 0.3083,-0.018 0.0804,-0.013 0.1468,-0.027 0.1957,-0.044 0.05,-0.018 0.0839,-0.041 0.1043,-0.071 0.0199,-0.03 0.0296,-0.064 0.0296,-0.104 z m 16.6711,-4.493 c 0,-0.777 -0.091,-1.477 -0.2742,-2.1 -0.1824,-0.623 -0.4555,-1.153 -0.8199,-1.59 -0.3625,-0.438 -0.8188,-0.774 -1.368,-1.009 -0.5488,-0.235 -1.189,-0.352 -1.9211,-0.352 -0.7207,0 -1.3457,0.107 -1.8718,0.322 -0.527,0.216 -0.9622,0.528 -1.3047,0.94 -0.3446,0.409 -0.6,0.918 -0.7684,1.526 -0.168,0.608 -0.2516,1.308 -0.2516,2.1 0,0.755 0.0915,1.442 0.2747,2.06 0.1824,0.618 0.457,1.145 0.8226,1.576 0.3664,0.433 0.8234,0.767 1.3723,1.001 0.5484,0.236 1.189,0.353 1.9199,0.353 0.707,0 1.323,-0.107 1.8473,-0.319 0.5238,-0.213 0.9597,-0.523 1.3089,-0.931 0.3481,-0.407 0.6079,-0.912 0.7778,-1.513 0.1715,-0.6 0.2562,-1.289 0.2562,-2.064 z m -1.3488,-0.09 c 0,0.544 -0.0492,1.05 -0.1449,1.517 -0.0965,0.467 -0.257,0.872 -0.4813,1.216 -0.225,0.343 -0.525,0.612 -0.9,0.804 -0.375,0.193 -0.8402,0.29 -1.3929,0.29 -0.5532,0 -1.0168,-0.104 -1.3918,-0.312 -0.375,-0.208 -0.6805,-0.484 -0.9153,-0.83 -0.234,-0.346 -0.4019,-0.751 -0.5031,-1.213 -0.1019,-0.462 -0.1516,-0.948 -0.1516,-1.457 0,-0.564 0.0469,-1.083 0.1407,-1.557 0.0929,-0.475 0.2508,-0.884 0.4742,-1.228 0.2219,-0.343 0.5187,-0.61 0.8918,-0.801 0.373,-0.19 0.841,-0.285 1.4027,-0.285 0.5582,0 1.0285,0.104 1.4082,0.311 0.3801,0.208 0.6864,0.488 0.9184,0.843 0.2316,0.352 0.3976,0.762 0.4961,1.226 0.0984,0.465 0.1488,0.957 0.1488,1.476 z m 10.7276,4.583 0,-9.21 c 0,-0.04 -0.01,-0.074 -0.03,-0.104 -0.02,-0.03 -0.054,-0.052 -0.104,-0.071 -0.049,-0.017 -0.115,-0.032 -0.196,-0.044 -0.082,-0.013 -0.184,-0.019 -0.308,-0.019 -0.119,0 -0.22,0.006 -0.304,0.019 -0.084,0.012 -0.151,0.027 -0.2,0.044 -0.05,0.019 -0.084,0.041 -0.104,0.071 -0.02,0.03 -0.03,0.064 -0.03,0.104 l 0,9.21 c 0,0.04 0.011,0.074 0.034,0.104 0.022,0.03 0.059,0.053 0.111,0.071 0.052,0.017 0.118,0.031 0.2,0.044 0.082,0.012 0.179,0.018 0.293,0.018 0.124,0 0.226,-0.006 0.308,-0.018 0.081,-0.013 0.147,-0.027 0.196,-0.044 0.05,-0.018 0.084,-0.041 0.104,-0.071 0.02,-0.03 0.03,-0.064 0.03,-0.104 z m 15.885,-0.022 0,-8.855 c 0,-0.099 -0.016,-0.183 -0.05,-0.252 -0.033,-0.069 -0.077,-0.126 -0.13,-0.17 -0.054,-0.045 -0.114,-0.077 -0.18,-0.097 -0.067,-0.02 -0.133,-0.029 -0.2,-0.029 l -0.422,0 c -0.133,0 -0.249,0.013 -0.349,0.04 -0.099,0.028 -0.194,0.077 -0.283,0.149 -0.09,0.071 -0.179,0.169 -0.269,0.293 -0.089,0.123 -0.184,0.281 -0.285,0.474 l -2.927,5.458 -0.463,0.886 -0.434,0.901 -0.015,0 0.022,-1.09 0.008,-1.105 0,-5.791 c 0,-0.034 -0.011,-0.068 -0.031,-0.101 -0.021,-0.032 -0.056,-0.055 -0.106,-0.074 -0.05,-0.017 -0.115,-0.032 -0.196,-0.044 -0.081,-0.013 -0.184,-0.019 -0.309,-0.019 -0.125,0 -0.228,0.006 -0.309,0.019 -0.081,0.012 -0.145,0.027 -0.192,0.044 -0.047,0.019 -0.081,0.042 -0.101,0.074 -0.021,0.033 -0.032,0.067 -0.032,0.101 l 0,8.854 c 0,0.199 0.056,0.339 0.169,0.423 0.112,0.084 0.235,0.126 0.367,0.126 l 0.628,0 c 0.148,0 0.271,-0.013 0.371,-0.037 0.1,-0.024 0.189,-0.065 0.268,-0.123 0.079,-0.057 0.156,-0.136 0.23,-0.237 0.074,-0.101 0.151,-0.229 0.232,-0.382 l 2.251,-4.212 0.401,-0.753 0.373,-0.723 0.355,-0.701 0.347,-0.693 0.008,0 -0.019,1.22 -0.004,1.22 0,5.206 c 0,0.034 0.011,0.066 0.032,0.096 0.021,0.03 0.056,0.057 0.105,0.078 0.05,0.023 0.115,0.038 0.196,0.048 0.081,0.01 0.187,0.016 0.317,0.016 0.115,0 0.214,-0.006 0.297,-0.016 0.084,-0.01 0.149,-0.025 0.196,-0.048 0.047,-0.021 0.081,-0.048 0.102,-0.078 0.021,-0.03 0.031,-0.062 0.031,-0.096 z m 13.679,-0.334 c 0,-0.093 -0.004,-0.175 -0.014,-0.245 -0.01,-0.069 -0.028,-0.125 -0.052,-0.167 -0.025,-0.042 -0.053,-0.072 -0.086,-0.092 -0.032,-0.02 -0.065,-0.03 -0.1,-0.03 l -3.515,0 0,-3.263 3.323,0 c 0.034,0 0.067,-0.009 0.1,-0.026 0.032,-0.017 0.06,-0.046 0.085,-0.085 0.025,-0.04 0.042,-0.093 0.052,-0.16 0.01,-0.066 0.015,-0.151 0.015,-0.255 0,-0.094 -0.005,-0.175 -0.015,-0.241 -0.01,-0.067 -0.027,-0.122 -0.052,-0.164 -0.025,-0.042 -0.053,-0.073 -0.085,-0.096 -0.033,-0.021 -0.066,-0.033 -0.1,-0.033 l -3.323,0 0,-3.997 c 0,-0.034 -0.01,-0.068 -0.029,-0.101 -0.02,-0.032 -0.055,-0.055 -0.104,-0.074 -0.05,-0.017 -0.114,-0.032 -0.193,-0.044 -0.079,-0.013 -0.183,-0.019 -0.312,-0.019 -0.118,0 -0.22,0.006 -0.304,0.019 -0.084,0.012 -0.15,0.027 -0.2,0.044 -0.049,0.019 -0.084,0.042 -0.104,0.074 -0.019,0.033 -0.029,0.067 -0.029,0.101 l 0,8.885 c 0,0.191 0.05,0.326 0.152,0.403 0.101,0.076 0.209,0.115 0.322,0.115 l 4.316,0 c 0.035,0 0.068,-0.01 0.1,-0.03 0.033,-0.02 0.061,-0.052 0.086,-0.096 0.024,-0.045 0.042,-0.102 0.052,-0.175 0.01,-0.071 0.014,-0.154 0.014,-0.248 z m 15.926,-4.137 c 0,-0.777 -0.093,-1.477 -0.275,-2.1 -0.182,-0.623 -0.457,-1.153 -0.82,-1.59 -0.362,-0.438 -0.818,-0.774 -1.367,-1.009 -0.55,-0.235 -1.19,-0.352 -1.922,-0.352 -0.722,0 -1.346,0.107 -1.871,0.322 -0.528,0.216 -0.963,0.528 -1.306,0.94 -0.344,0.409 -0.6,0.918 -0.768,1.526 -0.167,0.608 -0.251,1.308 -0.251,2.1 0,0.755 0.09,1.442 0.273,2.06 0.184,0.618 0.458,1.145 0.823,1.576 0.366,0.433 0.824,0.767 1.372,1.001 0.549,0.236 1.189,0.353 1.921,0.353 0.707,0 1.322,-0.107 1.847,-0.319 0.524,-0.213 0.96,-0.523 1.308,-0.931 0.349,-0.407 0.609,-0.912 0.779,-1.513 0.172,-0.6 0.257,-1.289 0.257,-2.064 z m -1.351,-0.09 c 0,0.544 -0.048,1.05 -0.144,1.517 -0.096,0.467 -0.256,0.872 -0.482,1.216 -0.224,0.343 -0.523,0.612 -0.898,0.804 -0.376,0.193 -0.841,0.29 -1.394,0.29 -0.553,0 -1.017,-0.104 -1.392,-0.312 -0.376,-0.208 -0.68,-0.484 -0.915,-0.83 -0.235,-0.346 -0.402,-0.751 -0.504,-1.213 -0.101,-0.462 -0.151,-0.948 -0.151,-1.457 0,-0.564 0.046,-1.083 0.14,-1.557 0.095,-0.475 0.253,-0.884 0.474,-1.228 0.222,-0.343 0.52,-0.61 0.893,-0.801 0.373,-0.19 0.84,-0.285 1.403,-0.285 0.558,0 1.028,0.104 1.408,0.311 0.38,0.208 0.686,0.488 0.918,0.843 0.232,0.352 0.397,0.762 0.497,1.226 0.098,0.465 0.147,0.957 0.147,1.476 z m 15.854,-4.627 c 0,-0.04 -0.008,-0.074 -0.024,-0.104 -0.014,-0.03 -0.046,-0.054 -0.096,-0.074 -0.048,-0.019 -0.119,-0.035 -0.208,-0.045 -0.088,-0.01 -0.207,-0.015 -0.356,-0.015 -0.128,0 -0.232,0.005 -0.315,0.015 -0.081,0.01 -0.147,0.027 -0.196,0.048 -0.05,0.023 -0.088,0.053 -0.115,0.093 -0.026,0.04 -0.051,0.089 -0.07,0.148 l -0.883,2.262 c -0.104,0.257 -0.211,0.493 -0.322,0.708 -0.112,0.215 -0.244,0.401 -0.397,0.558 -0.154,0.154 -0.334,0.275 -0.542,0.362 -0.207,0.086 -0.457,0.13 -0.749,0.13 l -0.852,0 0,-4.086 c 0,-0.04 -0.012,-0.074 -0.034,-0.104 -0.022,-0.03 -0.056,-0.052 -0.104,-0.071 -0.047,-0.017 -0.111,-0.032 -0.193,-0.044 -0.081,-0.013 -0.184,-0.019 -0.307,-0.019 -0.124,0 -0.227,0.006 -0.308,0.019 -0.082,0.012 -0.146,0.027 -0.197,0.044 -0.049,0.019 -0.084,0.041 -0.103,0.071 -0.02,0.03 -0.03,0.064 -0.03,0.104 l 0,8.885 c 0,0.191 0.051,0.326 0.152,0.403 0.101,0.076 0.209,0.115 0.323,0.115 l 2.039,0 c 0.242,0 0.444,-0.006 0.604,-0.018 l 0.434,-0.041 c 0.371,-0.065 0.698,-0.165 0.983,-0.305 0.284,-0.138 0.522,-0.314 0.715,-0.526 0.193,-0.212 0.338,-0.456 0.435,-0.731 0.096,-0.273 0.144,-0.577 0.144,-0.908 0,-0.32 -0.044,-0.609 -0.13,-0.863 -0.087,-0.256 -0.211,-0.48 -0.375,-0.676 -0.163,-0.195 -0.358,-0.364 -0.585,-0.508 -0.228,-0.143 -0.482,-0.264 -0.764,-0.363 0.158,-0.069 0.302,-0.157 0.43,-0.263 0.128,-0.106 0.248,-0.233 0.36,-0.382 0.111,-0.149 0.217,-0.319 0.315,-0.512 0.099,-0.193 0.197,-0.41 0.296,-0.653 l 0.861,-2.113 c 0.069,-0.178 0.113,-0.303 0.133,-0.375 0.02,-0.071 0.031,-0.127 0.031,-0.166 z m -1.921,6.741 c 0,0.375 -0.084,0.693 -0.252,0.952 -0.168,0.26 -0.451,0.447 -0.846,0.56 -0.124,0.035 -0.264,0.06 -0.419,0.074 -0.156,0.016 -0.359,0.023 -0.611,0.023 l -1.076,0 0,-3.234 1.246,0 c 0.336,0 0.627,0.041 0.872,0.123 0.243,0.081 0.447,0.195 0.61,0.341 0.164,0.146 0.283,0.318 0.36,0.515 0.078,0.198 0.116,0.414 0.116,0.646 z m 20.285,2.083 0,-8.824 c 0,-0.04 -0.01,-0.074 -0.03,-0.104 -0.021,-0.03 -0.057,-0.052 -0.108,-0.071 -0.051,-0.017 -0.115,-0.032 -0.193,-0.044 -0.079,-0.013 -0.183,-0.019 -0.311,-0.019 -0.117,0 -0.217,0.006 -0.301,0.019 -0.084,0.012 -0.151,0.027 -0.199,0.044 -0.048,0.019 -0.083,0.041 -0.102,0.071 -0.021,0.03 -0.032,0.064 -0.032,0.104 l 0,8.357 -0.014,0 -3.382,-8.394 c -0.015,-0.034 -0.036,-0.065 -0.063,-0.089 -0.027,-0.025 -0.067,-0.046 -0.119,-0.064 -0.051,-0.017 -0.113,-0.029 -0.184,-0.037 -0.073,-0.007 -0.158,-0.011 -0.257,-0.011 -0.104,0 -0.193,0.005 -0.267,0.015 -0.074,0.01 -0.135,0.025 -0.184,0.041 -0.051,0.017 -0.089,0.038 -0.116,0.063 -0.027,0.025 -0.045,0.052 -0.056,0.082 l -3.233,8.394 -0.007,0 0,-8.357 c 0,-0.04 -0.011,-0.074 -0.031,-0.104 -0.02,-0.03 -0.055,-0.052 -0.107,-0.071 -0.051,-0.017 -0.116,-0.032 -0.198,-0.044 -0.081,-0.013 -0.186,-0.019 -0.314,-0.019 -0.122,0 -0.223,0.006 -0.305,0.019 -0.082,0.012 -0.147,0.027 -0.195,0.044 -0.048,0.019 -0.082,0.041 -0.098,0.071 -0.019,0.03 -0.028,0.064 -0.028,0.104 l 0,8.824 c 0,0.208 0.055,0.356 0.166,0.445 0.111,0.089 0.234,0.134 0.369,0.134 l 0.784,0 c 0.16,0 0.3,-0.015 0.42,-0.045 0.122,-0.029 0.226,-0.076 0.317,-0.14 0.091,-0.065 0.165,-0.146 0.226,-0.245 0.06,-0.099 0.114,-0.214 0.159,-0.349 l 2.743,-6.947 0.037,0 2.855,6.925 c 0.055,0.148 0.116,0.274 0.181,0.378 0.065,0.104 0.137,0.187 0.214,0.249 0.078,0.061 0.165,0.106 0.261,0.133 0.095,0.027 0.206,0.041 0.332,0.041 l 0.82,0 c 0.075,0 0.147,-0.011 0.215,-0.034 0.067,-0.022 0.125,-0.056 0.174,-0.103 0.048,-0.046 0.087,-0.107 0.116,-0.178 0.03,-0.072 0.045,-0.159 0.045,-0.264 z m 12.606,0.349 3.219,-8.913 c 0.039,-0.11 0.061,-0.197 0.063,-0.264 0.002,-0.067 -0.016,-0.118 -0.056,-0.151 -0.038,-0.036 -0.105,-0.058 -0.195,-0.068 -0.092,-0.01 -0.214,-0.015 -0.368,-0.015 -0.154,0 -0.276,0.004 -0.368,0.011 -0.091,0.008 -0.16,0.02 -0.207,0.037 -0.047,0.018 -0.082,0.041 -0.103,0.071 -0.023,0.03 -0.043,0.067 -0.064,0.111 l -0.823,2.336 -3.989,0 -0.787,-2.306 c -0.015,-0.045 -0.035,-0.083 -0.059,-0.115 -0.024,-0.032 -0.061,-0.059 -0.107,-0.082 -0.047,-0.021 -0.115,-0.038 -0.201,-0.048 -0.087,-0.01 -0.199,-0.015 -0.337,-0.015 -0.144,0 -0.26,0.006 -0.353,0.019 -0.091,0.012 -0.154,0.036 -0.193,0.07 -0.037,0.036 -0.054,0.086 -0.05,0.152 0.002,0.067 0.022,0.155 0.062,0.264 l 3.218,8.913 c 0.02,0.055 0.046,0.099 0.078,0.134 0.032,0.034 0.079,0.062 0.142,0.081 0.061,0.02 0.14,0.034 0.236,0.041 0.098,0.008 0.219,0.011 0.367,0.011 0.158,0 0.289,-0.003 0.393,-0.011 0.104,-0.007 0.188,-0.021 0.252,-0.041 0.065,-0.019 0.114,-0.048 0.149,-0.085 0.034,-0.037 0.063,-0.083 0.081,-0.137 z m 0.764,-5.828 -1.676,4.782 -0.007,0 -1.654,-4.782 3.337,0 z m 14.969,5.509 c 0,-0.093 -0.006,-0.175 -0.015,-0.245 -0.01,-0.069 -0.025,-0.125 -0.049,-0.167 -0.021,-0.042 -0.049,-0.072 -0.081,-0.092 -0.032,-0.02 -0.068,-0.03 -0.107,-0.03 l -2.7,0 0,-8.32 c 0,-0.04 -0.009,-0.074 -0.03,-0.104 -0.018,-0.03 -0.054,-0.052 -0.103,-0.071 -0.05,-0.017 -0.115,-0.032 -0.197,-0.044 -0.082,-0.013 -0.184,-0.019 -0.308,-0.019 -0.117,0 -0.22,0.006 -0.304,0.019 -0.084,0.012 -0.15,0.027 -0.2,0.044 -0.05,0.019 -0.084,0.041 -0.104,0.071 -0.02,0.03 -0.03,0.064 -0.03,0.104 l 0,8.32 -2.699,0 c -0.039,0 -0.074,0.01 -0.107,0.03 -0.033,0.02 -0.059,0.05 -0.078,0.092 -0.02,0.042 -0.036,0.098 -0.049,0.167 -0.012,0.07 -0.018,0.152 -0.018,0.245 0,0.094 0.006,0.177 0.018,0.248 0.013,0.073 0.029,0.13 0.049,0.175 0.019,0.044 0.045,0.076 0.078,0.096 0.033,0.02 0.068,0.03 0.107,0.03 l 6.675,0 c 0.039,0 0.075,-0.01 0.107,-0.03 0.032,-0.02 0.06,-0.052 0.081,-0.096 0.024,-0.045 0.039,-0.102 0.049,-0.175 0.009,-0.071 0.015,-0.154 0.015,-0.248 z m 8.746,0.356 0,-9.21 c 0,-0.04 -0.01,-0.074 -0.03,-0.104 -0.02,-0.03 -0.054,-0.052 -0.104,-0.071 -0.049,-0.017 -0.114,-0.032 -0.195,-0.044 -0.082,-0.013 -0.185,-0.019 -0.309,-0.019 -0.119,0 -0.22,0.006 -0.304,0.019 -0.084,0.012 -0.151,0.027 -0.2,0.044 -0.05,0.019 -0.084,0.041 -0.103,0.071 -0.021,0.03 -0.031,0.064 -0.031,0.104 l 0,9.21 c 0,0.04 0.011,0.074 0.035,0.104 0.021,0.03 0.058,0.053 0.11,0.071 0.053,0.017 0.119,0.031 0.2,0.044 0.082,0.012 0.179,0.018 0.293,0.018 0.124,0 0.227,-0.006 0.309,-0.018 0.081,-0.013 0.146,-0.027 0.195,-0.044 0.05,-0.018 0.084,-0.041 0.104,-0.071 0.02,-0.03 0.03,-0.064 0.03,-0.104 z m 15.04,-8.046 c 0,-0.079 -0.003,-0.148 -0.008,-0.208 -0.005,-0.059 -0.013,-0.111 -0.025,-0.155 -0.013,-0.045 -0.029,-0.084 -0.048,-0.119 -0.021,-0.035 -0.055,-0.077 -0.105,-0.126 -0.049,-0.05 -0.153,-0.125 -0.31,-0.226 -0.159,-0.102 -0.356,-0.201 -0.591,-0.297 -0.235,-0.096 -0.504,-0.178 -0.808,-0.245 -0.303,-0.067 -0.636,-0.1 -0.997,-0.1 -0.623,0 -1.185,0.104 -1.687,0.312 -0.501,0.207 -0.93,0.514 -1.283,0.919 -0.354,0.406 -0.626,0.906 -0.816,1.502 -0.19,0.596 -0.286,1.282 -0.286,2.058 0,0.796 0.103,1.505 0.309,2.128 0.205,0.623 0.493,1.152 0.863,1.583 0.371,0.433 0.814,0.763 1.331,0.99 0.517,0.228 1.09,0.341 1.718,0.341 0.276,0 0.546,-0.026 0.807,-0.077 0.262,-0.052 0.504,-0.118 0.727,-0.197 0.222,-0.079 0.421,-0.171 0.594,-0.274 0.172,-0.104 0.293,-0.189 0.359,-0.255 0.067,-0.068 0.11,-0.119 0.13,-0.153 0.019,-0.035 0.035,-0.076 0.049,-0.123 0.011,-0.047 0.021,-0.101 0.028,-0.166 0.009,-0.065 0.013,-0.14 0.013,-0.23 0,-0.099 -0.006,-0.183 -0.016,-0.252 -0.01,-0.07 -0.024,-0.128 -0.045,-0.175 -0.019,-0.047 -0.044,-0.081 -0.071,-0.104 -0.027,-0.022 -0.061,-0.033 -0.101,-0.033 -0.069,0 -0.166,0.048 -0.29,0.145 -0.125,0.096 -0.285,0.202 -0.481,0.319 -0.197,0.116 -0.435,0.222 -0.716,0.318 -0.28,0.097 -0.616,0.145 -1.01,0.145 -0.428,0 -0.815,-0.085 -1.167,-0.256 -0.349,-0.17 -0.65,-0.421 -0.897,-0.752 -0.249,-0.332 -0.442,-0.736 -0.578,-1.213 -0.138,-0.477 -0.205,-1.022 -0.205,-1.634 0,-0.609 0.065,-1.147 0.196,-1.614 0.133,-0.467 0.321,-0.858 0.567,-1.172 0.246,-0.314 0.548,-0.55 0.906,-0.712 0.358,-0.16 0.763,-0.241 1.215,-0.241 0.383,0 0.717,0.047 1.003,0.141 0.286,0.095 0.529,0.199 0.731,0.315 0.201,0.117 0.366,0.222 0.495,0.316 0.13,0.093 0.231,0.14 0.306,0.14 0.036,0 0.064,-0.007 0.089,-0.022 0.026,-0.015 0.045,-0.043 0.06,-0.085 0.015,-0.042 0.026,-0.1 0.033,-0.174 0.008,-0.074 0.012,-0.168 0.012,-0.282 z m 12.929,1.335 c 0,-0.449 -0.083,-0.851 -0.248,-1.202 -0.166,-0.351 -0.396,-0.649 -0.69,-0.893 -0.294,-0.245 -0.64,-0.429 -1.038,-0.553 -0.398,-0.123 -0.827,-0.185 -1.287,-0.185 -0.321,0 -0.618,0.027 -0.894,0.081 -0.274,0.056 -0.518,0.122 -0.734,0.201 -0.215,0.079 -0.395,0.16 -0.541,0.244 -0.146,0.084 -0.247,0.156 -0.304,0.215 -0.056,0.061 -0.098,0.135 -0.126,0.228 -0.027,0.09 -0.041,0.212 -0.041,0.366 0,0.108 0.005,0.199 0.015,0.27 0.011,0.073 0.025,0.13 0.044,0.175 0.02,0.044 0.046,0.075 0.075,0.092 0.029,0.018 0.064,0.026 0.103,0.026 0.07,0 0.167,-0.042 0.293,-0.126 0.126,-0.084 0.289,-0.175 0.486,-0.274 0.198,-0.099 0.436,-0.192 0.717,-0.277 0.278,-0.087 0.601,-0.131 0.966,-0.131 0.278,0 0.532,0.037 0.761,0.111 0.23,0.074 0.427,0.179 0.593,0.315 0.165,0.136 0.293,0.303 0.383,0.501 0.089,0.198 0.133,0.423 0.133,0.675 0,0.272 -0.063,0.504 -0.186,0.697 -0.124,0.193 -0.287,0.362 -0.489,0.508 -0.202,0.146 -0.434,0.28 -0.694,0.4 l -0.797,0.371 c -0.272,0.126 -0.537,0.266 -0.793,0.419 -0.257,0.153 -0.488,0.334 -0.69,0.541 -0.203,0.208 -0.367,0.452 -0.494,0.731 -0.126,0.279 -0.189,0.614 -0.189,1.005 0,0.4 0.074,0.757 0.219,1.071 0.147,0.314 0.349,0.578 0.609,0.79 0.259,0.213 0.568,0.375 0.926,0.486 0.359,0.111 0.745,0.167 1.161,0.167 0.212,0 0.426,-0.019 0.641,-0.056 0.215,-0.037 0.418,-0.086 0.609,-0.147 0.19,-0.063 0.359,-0.132 0.507,-0.209 0.15,-0.077 0.246,-0.138 0.293,-0.185 0.047,-0.047 0.078,-0.084 0.093,-0.112 0.016,-0.027 0.027,-0.061 0.037,-0.103 0.01,-0.042 0.017,-0.093 0.023,-0.152 0.005,-0.06 0.007,-0.136 0.007,-0.23 0,-0.088 -0.003,-0.168 -0.01,-0.238 -0.009,-0.069 -0.02,-0.127 -0.034,-0.174 -0.016,-0.047 -0.037,-0.081 -0.064,-0.104 -0.026,-0.022 -0.058,-0.032 -0.093,-0.032 -0.053,0 -0.138,0.034 -0.255,0.103 -0.117,0.069 -0.258,0.148 -0.426,0.233 -0.168,0.087 -0.368,0.166 -0.598,0.238 -0.23,0.071 -0.487,0.107 -0.774,0.107 -0.268,0 -0.499,-0.036 -0.698,-0.107 -0.198,-0.072 -0.361,-0.167 -0.489,-0.285 -0.129,-0.119 -0.225,-0.26 -0.289,-0.424 -0.064,-0.163 -0.097,-0.336 -0.097,-0.519 0,-0.267 0.062,-0.496 0.186,-0.689 0.123,-0.193 0.287,-0.364 0.493,-0.512 0.205,-0.147 0.438,-0.284 0.7,-0.408 l 0.801,-0.374 c 0.272,-0.126 0.539,-0.265 0.801,-0.416 0.262,-0.15 0.496,-0.328 0.701,-0.533 0.205,-0.205 0.371,-0.448 0.497,-0.727 0.126,-0.28 0.189,-0.61 0.189,-0.99" /><path
       inkscape:connector-curvature="0"
       id="path3117"
       style="fill:#ffffff;fill-opacity:1;fill-rule:evenodd;stroke:none"
       d="m 150.629,424.756 4.238,-11.738 c 0.052,-0.144 0.08,-0.259 0.083,-0.347 0.003,-0.088 -0.02,-0.155 -0.073,-0.2 -0.052,-0.046 -0.138,-0.075 -0.259,-0.088 -0.12,-0.013 -0.281,-0.02 -0.482,-0.02 -0.202,0 -0.364,0.005 -0.485,0.015 -0.12,0.01 -0.211,0.026 -0.273,0.049 -0.062,0.023 -0.107,0.054 -0.137,0.093 -0.029,0.039 -0.056,0.087 -0.083,0.146 l -1.084,3.076 -5.254,0 -1.035,-3.037 c -0.018,-0.058 -0.045,-0.109 -0.078,-0.151 -0.033,-0.043 -0.08,-0.077 -0.142,-0.108 -0.061,-0.029 -0.149,-0.05 -0.263,-0.063 -0.114,-0.013 -0.262,-0.02 -0.445,-0.02 -0.188,0 -0.342,0.008 -0.463,0.025 -0.121,0.016 -0.206,0.047 -0.253,0.093 -0.05,0.045 -0.073,0.112 -0.07,0.2 0.003,0.089 0.032,0.203 0.083,0.346 l 4.24,11.739 c 0.025,0.071 0.059,0.13 0.101,0.175 0.042,0.046 0.105,0.082 0.187,0.108 0.081,0.026 0.184,0.044 0.311,0.055 0.127,0.008 0.288,0.013 0.485,0.013 0.208,0 0.379,-0.005 0.516,-0.013 0.137,-0.011 0.247,-0.029 0.332,-0.055 0.085,-0.026 0.151,-0.064 0.195,-0.111 0.046,-0.05 0.083,-0.11 0.108,-0.182 z m 1.007,-7.676 -2.207,6.299 -0.011,0 -2.178,-6.299" /><path
       inkscape:connector-curvature="0"
       id="path3119"
       style="fill:#ffffff;fill-opacity:1;fill-rule:evenodd;stroke:none"
       d="m 204.698,414.209 c 0,-0.104 -0.004,-0.195 -0.01,-0.273 -0.006,-0.079 -0.018,-0.147 -0.034,-0.206 -0.016,-0.058 -0.038,-0.11 -0.064,-0.156 -0.026,-0.045 -0.07,-0.101 -0.137,-0.166 -0.064,-0.065 -0.201,-0.164 -0.41,-0.298 -0.208,-0.133 -0.467,-0.263 -0.775,-0.39 -0.31,-0.127 -0.664,-0.235 -1.066,-0.323 -0.4,-0.087 -0.838,-0.131 -1.312,-0.131 -0.821,0 -1.562,0.136 -2.223,0.41 -0.661,0.273 -1.224,0.678 -1.688,1.211 -0.466,0.534 -0.825,1.193 -1.075,1.977 -0.251,0.785 -0.376,1.688 -0.376,2.71 0,1.048 0.135,1.983 0.406,2.803 0.269,0.82 0.648,1.516 1.137,2.085 0.489,0.57 1.073,1.004 1.753,1.304 0.68,0.299 1.433,0.449 2.26,0.449 0.365,0 0.721,-0.034 1.065,-0.103 0.345,-0.068 0.664,-0.154 0.957,-0.258 0.293,-0.105 0.553,-0.225 0.782,-0.362 0.227,-0.137 0.385,-0.249 0.473,-0.337 0.088,-0.088 0.144,-0.154 0.171,-0.2 0.027,-0.045 0.047,-0.099 0.064,-0.161 0.015,-0.062 0.028,-0.135 0.038,-0.22 0.011,-0.084 0.015,-0.185 0.015,-0.303 0,-0.13 -0.006,-0.24 -0.02,-0.332 -0.013,-0.091 -0.032,-0.167 -0.059,-0.229 -0.026,-0.062 -0.056,-0.106 -0.092,-0.137 -0.037,-0.029 -0.081,-0.044 -0.133,-0.044 -0.092,0 -0.22,0.064 -0.384,0.191 -0.163,0.127 -0.374,0.267 -0.633,0.42 -0.258,0.153 -0.573,0.293 -0.942,0.42 -0.369,0.128 -0.813,0.19 -1.33,0.19 -0.564,0 -1.076,-0.112 -1.536,-0.337 -0.462,-0.225 -0.857,-0.555 -1.184,-0.991 -0.327,-0.436 -0.581,-0.969 -0.761,-1.597 -0.179,-0.628 -0.269,-1.346 -0.269,-2.153 0,-0.801 0.087,-1.509 0.259,-2.124 0.174,-0.615 0.422,-1.13 0.747,-1.543 0.324,-0.414 0.721,-0.726 1.192,-0.938 0.472,-0.211 1.005,-0.317 1.6,-0.317 0.504,0 0.945,0.062 1.321,0.186 0.376,0.123 0.697,0.262 0.963,0.416 0.264,0.152 0.482,0.291 0.652,0.414 0.17,0.123 0.305,0.185 0.402,0.185 0.046,0 0.085,-0.01 0.119,-0.029 0.032,-0.02 0.058,-0.057 0.079,-0.112 0.018,-0.056 0.033,-0.132 0.044,-0.23 0.009,-0.098 0.014,-0.221 0.014,-0.371" /><path
       inkscape:connector-curvature="0"
       id="path3121"
       style="fill:#ffffff;fill-opacity:1;fill-rule:evenodd;stroke:none"
       d="m 204.824,372.84 c 0,-0.124 -0.007,-0.233 -0.019,-0.327 -0.014,-0.095 -0.033,-0.173 -0.059,-0.235 -0.025,-0.062 -0.058,-0.105 -0.098,-0.132 -0.039,-0.026 -0.081,-0.039 -0.127,-0.039 -0.078,0 -0.208,0.062 -0.39,0.186 -0.183,0.124 -0.427,0.26 -0.733,0.41 -0.306,0.151 -0.671,0.287 -1.098,0.41 -0.427,0.124 -0.933,0.186 -1.519,0.186 -0.697,0 -1.322,-0.127 -1.875,-0.381 -0.552,-0.254 -1.022,-0.605 -1.406,-1.055 -0.384,-0.449 -0.679,-0.983 -0.884,-1.601 -0.205,-0.619 -0.307,-1.289 -0.307,-2.012 0,-0.807 0.112,-1.523 0.337,-2.148 0.224,-0.625 0.536,-1.153 0.932,-1.582 0.398,-0.43 0.871,-0.756 1.421,-0.977 0.55,-0.221 1.154,-0.332 1.812,-0.332 0.39,0 0.786,0.047 1.186,0.143 0.4,0.093 0.774,0.235 1.118,0.423 l 0,3.682 -2.929,0 c -0.111,0 -0.194,0.055 -0.249,0.166 -0.056,0.111 -0.083,0.283 -0.083,0.518 0,0.123 0.006,0.229 0.019,0.317 0.013,0.088 0.034,0.159 0.064,0.215 0.029,0.055 0.063,0.096 0.102,0.122 0.039,0.026 0.088,0.039 0.147,0.039 l 4.013,0 c 0.072,0 0.143,-0.013 0.215,-0.039 0.071,-0.026 0.137,-0.065 0.195,-0.117 0.059,-0.052 0.104,-0.124 0.137,-0.215 0.032,-0.091 0.049,-0.195 0.049,-0.313 l 0,-4.814 c 0,-0.169 -0.029,-0.316 -0.088,-0.44 -0.059,-0.123 -0.182,-0.232 -0.371,-0.327 -0.189,-0.094 -0.433,-0.197 -0.732,-0.307 -0.299,-0.111 -0.609,-0.205 -0.928,-0.284 -0.319,-0.078 -0.642,-0.136 -0.967,-0.175 -0.326,-0.039 -0.647,-0.059 -0.967,-0.059 -0.976,0 -1.848,0.151 -2.617,0.454 -0.768,0.303 -1.418,0.734 -1.948,1.294 -0.531,0.56 -0.936,1.231 -1.216,2.012 -0.279,0.781 -0.42,1.654 -0.42,2.617 0,1.003 0.151,1.911 0.454,2.725 0.303,0.813 0.73,1.507 1.279,2.08 0.55,0.573 1.211,1.017 1.983,1.333 0.771,0.316 1.626,0.473 2.563,0.473 0.482,0 0.934,-0.042 1.359,-0.127 0.423,-0.084 0.799,-0.183 1.127,-0.297 0.328,-0.114 0.605,-0.238 0.83,-0.372 0.224,-0.133 0.38,-0.242 0.464,-0.327 0.085,-0.084 0.143,-0.182 0.175,-0.293 0.034,-0.11 0.049,-0.27 0.049,-0.478" /><path
       inkscape:connector-curvature="0"
       id="path3123"
       style="fill:#ffffff;fill-opacity:1;fill-rule:evenodd;stroke:none"
       d="m 255.188,373.836 c 0,-0.124 -0.006,-0.231 -0.02,-0.322 -0.013,-0.091 -0.034,-0.165 -0.064,-0.22 -0.029,-0.055 -0.065,-0.096 -0.107,-0.122 -0.043,-0.026 -0.09,-0.039 -0.142,-0.039 l -3.554,0 0,-10.957 c 0,-0.052 -0.014,-0.098 -0.04,-0.137 -0.026,-0.039 -0.071,-0.07 -0.136,-0.093 -0.064,-0.022 -0.151,-0.042 -0.259,-0.058 -0.107,-0.017 -0.243,-0.025 -0.405,-0.025 -0.156,0 -0.29,0.008 -0.4,0.025 -0.111,0.016 -0.199,0.036 -0.264,0.058 -0.066,0.023 -0.11,0.054 -0.137,0.093 -0.026,0.039 -0.039,0.085 -0.039,0.137 l 0,10.957 -3.555,0 c -0.051,0 -0.099,0.013 -0.141,0.039 -0.043,0.026 -0.076,0.067 -0.103,0.122 -0.026,0.055 -0.047,0.129 -0.063,0.22 -0.017,0.091 -0.025,0.198 -0.025,0.322 0,0.124 0.008,0.233 0.025,0.327 0.016,0.095 0.037,0.171 0.063,0.23 0.027,0.058 0.06,0.1 0.103,0.127 0.042,0.026 0.09,0.039 0.141,0.039 l 8.789,0 c 0.052,0 0.099,-0.013 0.142,-0.039 0.042,-0.027 0.078,-0.069 0.107,-0.127 0.03,-0.059 0.051,-0.135 0.064,-0.23 0.014,-0.094 0.02,-0.203 0.02,-0.327" /></g></svg>